<?xml version="1.0" encoding="UTF-8" standalone="no"?><!-- Generator: Gravit.io --><svg xmlns="http://www.w3.org/2000/svg" xmlns:xlink="http://www.w3.org/1999/xlink" style="isolation:isolate" viewBox="0 0 48 48" width="48pt" height="48pt"><defs><clipPath id="_clipPath_VWzu8Jmc1YQJMI5p1D59wuWogU5Rrapa"><rect width="48" height="48"/></clipPath></defs><g clip-path="url(#_clipPath_VWzu8Jmc1YQJMI5p1D59wuWogU5Rrapa)"><path d=" M 11 44 Q 9.75 44 8.875 43.125 Q 8 42.25 8 41 L 8 19.3 Q 8 18.05 8.875 17.175 Q 9.75 16.3 11 16.3 L 14.5 16.3 L 14.5 11.5 Q 14.5 7.55 17.275 4.775 Q 20.05 2 24 2 Q 27.95 2 30.725 4.775 Q 33.5 7.55 33.5 11.5 L 33.5 16.3 L 37 16.3 Q 38.25 16.3 39.125 17.175 Q 40 18.05 40 19.3 L 40 41 Q 40 42.25 39.125 43.125 Q 38.25 44 37 44 L 11 44 Z  M 24 34 Q 25.6 34 26.725 32.9 Q 27.85 31.8 27.85 30.25 Q 27.85 28.75 26.725 27.525 Q 25.6 26.3 24 26.3 Q 22.4 26.3 21.275 27.525 Q 20.15 28.75 20.15 30.25 Q 20.15 31.8 21.275 32.9 Q 22.4 34 24 34 Z  M 17.5 16.3 L 30.5 16.3 L 30.5 11.5 Q 30.5 8.8 28.6 6.9 Q 26.7 5 24 5 Q 21.3 5 19.4 6.9 Q 17.5 8.8 17.5 11.5 L 17.5 16.3 Z " fill="rgb(0,0,0)"/></g></svg>