<?xml version="1.0" encoding="UTF-8" standalone="no"?><!-- Generator: Gravit.io --><svg xmlns="http://www.w3.org/2000/svg" xmlns:xlink="http://www.w3.org/1999/xlink" style="isolation:isolate" viewBox="0 0 40 40" width="40pt" height="40pt"><defs><clipPath id="_clipPath_eBaY0Fd66OROaFcMJBCEcfCzTJFF0Y12"><rect width="40" height="40"/></clipPath></defs><g clip-path="url(#_clipPath_eBaY0Fd66OROaFcMJBCEcfCzTJFF0Y12)"><path d=" M 6.667 31.667 L 6.667 28.875 L 10.125 28.875 L 10.125 16.5 Q 10.125 13 12.188 10.292 Q 14.25 7.583 17.625 6.833 L 17.625 5.625 Q 17.625 4.667 18.312 4 Q 19 3.333 20 3.333 Q 21 3.333 21.688 4 Q 22.375 4.667 22.375 5.625 L 22.375 6.833 Q 25.75 7.583 27.833 10.292 Q 29.917 13 29.917 16.5 L 29.917 28.875 L 33.333 28.875 L 33.333 31.667 L 6.667 31.667 Z  M 20 36.667 Q 18.667 36.667 17.667 35.688 Q 16.667 34.708 16.667 33.333 L 23.333 33.333 Q 23.333 34.708 22.354 35.688 Q 21.375 36.667 20 36.667 Z " fill="rgb(255,255,255)"/></g></svg>