<?xml version="1.0" encoding="UTF-8" standalone="no"?><!-- Generator: Gravit.io --><svg xmlns="http://www.w3.org/2000/svg" xmlns:xlink="http://www.w3.org/1999/xlink" style="isolation:isolate" viewBox="0 0 40 40" width="40pt" height="40pt"><defs><clipPath id="_clipPath_4j67CKsPG0cq1HDVN9tNPx39dNpzTU1i"><rect width="40" height="40"/></clipPath></defs><g clip-path="url(#_clipPath_4j67CKsPG0cq1HDVN9tNPx39dNpzTU1i)"><path d=" M 20 33.333 Q 14.458 33.333 10.562 29.438 Q 6.667 25.542 6.667 20 Q 6.667 14.458 10.562 10.563 Q 14.458 6.667 20 6.667 Q 23.333 6.667 25.979 8.021 Q 28.625 9.375 30.542 11.792 L 30.542 6.667 L 33.333 6.667 L 33.333 17.625 L 22.375 17.625 L 22.375 14.833 L 29.375 14.833 Q 27.875 12.375 25.479 10.917 Q 23.083 9.458 20 9.458 Q 15.583 9.458 12.521 12.521 Q 9.458 15.583 9.458 20 Q 9.458 24.417 12.521 27.479 Q 15.583 30.542 20 30.542 Q 23.375 30.542 26.146 28.625 Q 28.917 26.708 30.042 23.542 L 32.917 23.542 Q 31.708 27.917 28.125 30.625 Q 24.542 33.333 20 33.333 Z " fill="rgb(255,255,255)"/></g></svg>